<?xml version="1.0" standalone="no"?>
<!DOCTYPE svg PUBLIC "-//W3C//DTD SVG 20010904//EN"
 "http://www.w3.org/TR/2001/REC-SVG-20010904/DTD/svg10.dtd">
<svg version="1.0" xmlns="http://www.w3.org/2000/svg"
 width="25.000000pt" height="22.000000pt" viewBox="0 0 25.000000 22.000000"
 preserveAspectRatio="xMidYMid meet">

<g transform="translate(0.000000,22.000000) scale(0.100000,-0.100000)"
fill="#000000" stroke="none">
<path d="M12 208 c-7 -7 -12 -40 -12 -80 0 -63 2 -69 24 -79 13 -6 27 -21 30
-33 l6 -21 19 23 c16 19 29 22 83 22 36 0 69 5 76 12 16 16 16 140 0 156 -16
16 -210 16 -226 0z m198 -38 c0 -6 -35 -10 -85 -10 -50 0 -85 4 -85 10 0 6 35
10 85 10 50 0 85 -4 85 -10z m0 -40 c0 -6 -35 -10 -85 -10 -50 0 -85 4 -85 10
0 6 35 10 85 10 50 0 85 -4 85 -10z m0 -40 c0 -6 -35 -10 -85 -10 -50 0 -85 4
-85 10 0 6 35 10 85 10 50 0 85 -4 85 -10z"/>
</g>
</svg>
