<?xml version="1.0" standalone="no"?>
<!DOCTYPE svg PUBLIC "-//W3C//DTD SVG 20010904//EN"
 "http://www.w3.org/TR/2001/REC-SVG-20010904/DTD/svg10.dtd">
<svg version="1.0" xmlns="http://www.w3.org/2000/svg"
 width="15.000000pt" height="9.000000pt" viewBox="0 0 15.000000 9.000000"
 preserveAspectRatio="xMidYMid meet">

<g transform="translate(0.000000,9.000000) scale(0.100000,-0.100000)"
fill="#000000" stroke="none">
<path d="M50 65 l24 -25 23 22 c13 12 23 23 23 25 0 2 -21 3 -47 3 l-46 0 23
-25z"/>
<path d="M0 30 c0 -27 3 -30 32 -30 l32 0 -29 30 c-16 17 -30 30 -32 30 -2 0
-3 -13 -3 -30z"/>
<path d="M115 30 l-29 -30 32 0 c29 0 32 3 32 30 0 17 -1 30 -3 30 -2 0 -16
-13 -32 -30z"/>
</g>
</svg>
