<?xml version="1.0" standalone="no"?>
<!DOCTYPE svg PUBLIC "-//W3C//DTD SVG 20010904//EN"
 "http://www.w3.org/TR/2001/REC-SVG-20010904/DTD/svg10.dtd">
<svg version="1.0" xmlns="http://www.w3.org/2000/svg"
 width="30.000000pt" height="20.000000pt" viewBox="0 0 30.000000 20.000000"
 preserveAspectRatio="xMidYMid meet">

<g transform="translate(0.000000,20.000000) scale(0.100000,-0.100000)"
fill="#000000" stroke="none">
<path d="M94 184 c-17 -8 -46 -31 -65 -50 l-33 -34 35 -36 c82 -86 156 -86
238 0 34 35 34 36 15 57 -37 43 -97 79 -128 79 -17 0 -45 -7 -62 -16z m100
-36 c21 -29 20 -77 -1 -100 -20 -22 -61 -23 -85 -1 -23 20 -24 80 -1 105 23
25 68 23 87 -4z"/>
<path d="M120 125 c-26 -31 13 -81 47 -59 25 16 27 34 4 34 -14 0 -21 6 -21
20 0 24 -13 26 -30 5z"/>
</g>
</svg>
