<?xml version="1.0" standalone="no"?>
<!DOCTYPE svg PUBLIC "-//W3C//DTD SVG 20010904//EN"
 "http://www.w3.org/TR/2001/REC-SVG-20010904/DTD/svg10.dtd">
<svg version="1.0" xmlns="http://www.w3.org/2000/svg"
 width="35.000000pt" height="35.000000pt" viewBox="0 0 35.000000 35.000000"
 preserveAspectRatio="xMidYMid meet">

<g transform="translate(0.000000,35.000000) scale(0.100000,-0.100000)"
fill="#000000" stroke="none">
<path d="M113 310 c-3 -11 -13 -20 -22 -21 -85 -4 -91 -13 -91 -140 0 -97 2
-109 19 -119 26 -13 286 -13 312 0 17 10 19 22 19 119 0 122 -4 129 -69 138
-27 4 -41 11 -44 24 -4 16 -15 19 -62 19 -48 0 -58 -3 -62 -20z m217 -70 c0
-16 -7 -20 -35 -20 -28 0 -35 4 -35 20 0 16 7 20 35 20 28 0 35 -4 35 -20z
m-96 -25 c33 -30 35 -81 5 -119 -45 -58 -149 -19 -149 56 1 77 88 115 144 63z"/>
<path d="M132 197 c-43 -46 -17 -107 46 -107 57 0 82 68 39 108 -30 28 -58 28
-85 -1z"/>
</g>
</svg>
