<?xml version="1.0" standalone="no"?>
<!DOCTYPE svg PUBLIC "-//W3C//DTD SVG 20010904//EN"
 "http://www.w3.org/TR/2001/REC-SVG-20010904/DTD/svg10.dtd">
<svg version="1.0" xmlns="http://www.w3.org/2000/svg"
 width="30.000000pt" height="24.000000pt" viewBox="0 0 30.000000 24.000000"
 preserveAspectRatio="xMidYMid meet">

<g transform="translate(0.000000,24.000000) scale(0.100000,-0.100000)"
fill="#000000" stroke="none">
<path d="M157 234 c-4 -4 -7 -17 -7 -30 0 -17 -8 -24 -31 -29 -16 -4 -45 -22
-64 -41 -33 -33 -65 -107 -51 -121 8 -9 76 24 76 37 0 6 -12 4 -30 -5 -34 -17
-38 -9 -15 34 19 38 68 78 105 86 24 5 30 12 30 32 0 23 2 22 56 -24 l57 -48
-54 -47 c-53 -46 -54 -47 -57 -23 -3 25 -25 34 -37 15 -3 -5 -2 -10 4 -10 5 0
11 -10 13 -23 2 -12 9 -22 16 -22 16 0 132 96 132 109 0 10 -110 107 -129 114
-4 1 -10 -1 -14 -4z"/>
</g>
</svg>
