<svg width="45" height="45" version="1.1" xmlns="http://www.w3.org/2000/svg"><path fill="rgb(255,255,255)" stroke="rgb(255,255,255)" stroke-width="1" opacity="0.43529411764705883" d="M 17.5 2 L 18 3.5 L 15.5 5 L 15.5 4 Q 18 4.7 17.5 2 Z "></path><path fill="rgb(255,255,255)" stroke="rgb(255,255,255)" stroke-width="1" opacity="0.43529411764705883" d="M 27.5 2 L 28 4 L 30 4.5 L 28.5 5 L 27.5 2 Z "></path><path fill="rgb(255,255,255)" stroke="rgb(255,255,255)" stroke-width="1" opacity="0.43529411764705883" d="M 8.5 4 L 14 5.5 L 12.5 6 L 8.5 5 Q 4.3 5.8 5 11.5 L 6 14.5 L 3.5 18 L 2 17.5 L 4 17 L 5 12.5 L 4 8.5 L 8.5 4 Z "></path><path fill="rgb(255,255,255)" stroke="rgb(255,255,255)" stroke-width="1" opacity="0.43529411764705883" d="M 33.5 4 L 36.5 4 L 41 8.5 L 40 14.5 L 41 17 L 43 17.5 L 41.5 18 L 39 12.5 L 40 8.5 Q 39.2 4.3 33.5 5 L 31.5 6 L 31.5 5 L 33.5 4 Z "></path><path fill="rgb(255,255,255)" stroke="rgb(255,255,255)" stroke-width="1" opacity="0.43529411764705883" d="M 2.5 27 L 5 28.5 L 6 32.5 L 5 36.5 Q 5.8 40.8 11.5 40 L 13.5 39 L 13.5 40 L 8.5 41 L 4 36.5 L 4 33.5 L 5 30.5 L 4 28 L 2.5 27 Z "></path><path fill="rgb(255,255,255)" stroke="rgb(255,255,255)" stroke-width="1" opacity="0.43529411764705883" d="M 41.5 27 L 43 27.5 L 41 28 L 40 32.5 L 41 36.5 L 36.5 41 L 33.5 41 L 31 39.5 L 32.5 39 L 36.5 40 Q 40.8 39.2 40 33.5 L 39 30.5 L 41.5 27 Z "></path><path fill="rgb(255,255,255)" stroke="rgb(255,255,255)" stroke-width="1" opacity="0.43529411764705883" d="M 15.5 40 L 18 41.5 L 17.5 43 L 17 41 L 15.5 40 Z "></path><path fill="rgb(255,255,255)" stroke="rgb(255,255,255)" stroke-width="1" opacity="0.43529411764705883" d="M 28.5 40 L 30 40.5 L 28 41 L 27.5 43 L 27 41.5 L 28.5 40 Z "></path><path fill="rgb(253,253,253)" stroke="rgb(253,253,253)" stroke-width="1" opacity="1" d="M 30.5 13 L 31.5 15 L 30.5 13 Z "></path><path fill="rgb(253,253,253)" stroke="rgb(253,253,253)" stroke-width="1" opacity="1" d="M 13.5 15 L 12.5 17 L 13.5 15 Z "></path><path fill="rgb(253,253,253)" stroke="rgb(253,253,253)" stroke-width="1" opacity="1" d="M 13.5 29 L 15.5 32 L 13.5 29 Z "></path><path fill="rgb(253,253,253)" stroke="rgb(253,253,253)" stroke-width="1" opacity="1" d="M 31.5 29 L 29.5 32 L 31.5 29 Z "></path><path fill="rgb(253,253,253)" stroke="rgb(253,253,253)" stroke-width="1" opacity="1" d="M 20.5 33 L 25 33.5 L 20.5 34 L 20.5 33 Z "></path><path fill="rgb(255,255,255)" stroke="rgb(255,255,255)" stroke-width="1" opacity="1" d="M 19.5 0 Q 24.9 -0.6 27 1 L 28.5 5 L 32.5 6 L 36.5 5 Q 40.8 5.8 40 11.5 L 39 14.5 L 41.5 18 Q 44.8 16.9 44 19.5 L 45 24.5 L 44 27 L 40 28.5 L 39 32.5 L 40 36.5 Q 39.2 40.8 33.5 40 L 31.5 39 L 27 41.5 L 25.5 45 Q 20.1 45.6 18 44 L 16.5 40 L 12.5 39 L 8.5 40 Q 4.3 39.2 5 33.5 L 6 30.5 L 3.5 27 Q 0.2 28.1 1 25.5 L 0 20.5 L 1 18 L 5 16.5 L 6 12.5 L 5 8.5 Q 5.8 4.3 11.5 5 L 13.5 6 L 18 3.5 L 19.5 0 Z M 23 10 L 14 13 L 11 19 Q 10 26 13 30 L 21 34 Q 27 35 30 32 L 34 26 Q 35 18 32 15 L 23 10 Z "></path><path fill="rgb(0,0,0)" stroke="rgb(0,0,0)" stroke-width="1" opacity="0" d="M 0 0 L 17.5 0 L 18 1.5 L 17 4 L 12.5 5 L 8.5 4 L 4 8.5 L 4 11.5 L 5 14.5 L 4 17 L 0 18 L 0 0 Z "></path><path fill="rgb(0,0,0)" stroke="rgb(0,0,0)" stroke-width="1" opacity="0" d="M 27 0 L 45 0 L 45 18 L 41 17 L 40 12.5 L 41 8.5 L 36.5 4 L 33.5 4 L 30.5 5 L 28 4 L 27 0 Z "></path><path fill="rgb(0,0,0)" stroke="rgb(0,0,0)" stroke-width="1" opacity="0" d="M 0 27 L 4 28 L 5 32.5 L 4 36.5 L 8.5 41 L 11.5 41 L 14.5 40 L 17 41 L 18 45 L 0 45 L 0 27 Z "></path><path fill="rgb(0,0,0)" stroke="rgb(0,0,0)" stroke-width="1" opacity="0" d="M 43.5 27 L 45 27.5 L 45 45 L 27.5 45 L 27 43.5 L 28 41 L 32.5 40 L 36.5 41 L 41 36.5 L 41 33.5 L 40 30.5 L 41 28 L 43.5 27 Z "></path><path fill="rgb(106,106,106)" stroke="rgb(106,106,106)" stroke-width="1" opacity="1" d="M 19.5 11 L 26 11.5 L 19.5 12 L 19.5 11 Z "></path><path fill="rgb(106,106,106)" stroke="rgb(106,106,106)" stroke-width="1" opacity="1" d="M 15.5 13 L 14.5 15 L 15.5 13 Z "></path><path fill="rgb(106,106,106)" stroke="rgb(106,106,106)" stroke-width="1" opacity="1" d="M 29.5 13 L 31.5 16 L 29.5 13 Z "></path><path fill="rgb(106,106,106)" stroke="rgb(106,106,106)" stroke-width="1" opacity="1" d="M 13.5 16 L 13 17.5 L 12.5 19 L 12 17.5 L 13.5 16 Z "></path><path fill="rgb(106,106,106)" stroke="rgb(106,106,106)" stroke-width="1" opacity="1" d="M 11.5 20 L 12 23.5 L 11 23.5 L 11.5 20 Z "></path><path fill="rgb(106,106,106)" stroke="rgb(106,106,106)" stroke-width="1" opacity="1" d="M 33.5 20 L 34 23.5 L 33 23.5 L 33.5 20 Z "></path><path fill="rgb(106,106,106)" stroke="rgb(106,106,106)" stroke-width="1" opacity="1" d="M 13.5 28 L 20 32.5 L 18.5 33 L 13.5 28 Z "></path><path fill="rgb(106,106,106)" stroke="rgb(106,106,106)" stroke-width="1" opacity="1" d="M 31.5 28 L 28.5 32 L 25.5 33 L 25.5 32 L 31.5 28 Z "></path><path fill="rgb(102,102,102)" stroke="rgb(102,102,102)" stroke-width="1" opacity="1" d="M 18.5 12 Q 29.3 10.2 32 16.5 L 33 25.5 L 28.5 31 Q 26.2 33.7 20.5 33 L 13 27.5 L 12 19.5 L 16.5 13 L 18.5 12 Z "></path></svg>